<?xml version="1.0" encoding="utf-8"?>
<!-- Generator: Adobe Illustrator 25.2.3, SVG Export Plug-In . SVG Version: 6.00 Build 0)  -->
<svg version="1.1" id="Layer_1" xmlns="http://www.w3.org/2000/svg" xmlns:xlink="http://www.w3.org/1999/xlink" x="0px" y="0px"
	 width="611.4px" height="1019.2px" viewBox="0 0 611.4 1019.2" enable-background="new 0 0 611.4 1019.2" xml:space="preserve">
<g id="standing_pose">
	<ellipse fill="#6C9394" cx="308.4" cy="2309.7" rx="331" ry="63.7"/>
	<g>
		<g>
			<g>
				<g>
					<path fill="#2F2A32" d="M8,791.6c-1.2-32,86.2-302.2,101.2-344.8c1.9-5.3,4.4-11.1,7.9-15.5c2.3-3,24.6-12.4,27.3-9.7
						c28.5,28.4,67.4,153,65.1,192.6c-2.6,44.4-89.9,224.3-96.4,225.8C78.3,847.9,9.5,834.5,8,791.6z"/>
				</g>
			</g>
		</g>
		<g>
			<g>
				<g>
					<path fill="#2F2A32" d="M601.3,756.9c-0.1-8.1-97-269.6-115.8-310.6c-2.3-5.1-5.4-10.6-9.3-14.8c-2.6-2.8-25.7-10-28-7.2
						C422.3,455.3,395,582.9,401,622.1c6.7,43.9,108.5,211.3,114.3,214.6C559.6,861,602.2,788.8,601.3,756.9z"/>
				</g>
			</g>
		</g>
		<g>
			<g>
				<g>
					<path fill="#232026" d="M305.6,2141.1c0,0-19.2-8.5-40.5,20.8c-21.3,29.3-47,72-52.5,77.5c-16,16-46.4,56.4-31.8,73.3
						c19.1,22.2,105.9,3.9,114.1-19c12-33.9,32.1-88.5,42.4-116.4C347.5,2149.4,315.2,2142.1,305.6,2141.1z"/>
					<path fill="#F0C7AD" d="M289.9,2141.5c0,0-9.1,4.6-24.2,30.7c-10.2,17.5-53,83.8-53,83.8s46.2,17.9,63.2-0.6
						c17-18.5,46.9-65.6,56.2-88.4C341,2145.1,302.7,2132.2,289.9,2141.5z"/>
				</g>
			</g>
			<path fill="#F0C7AD" d="M203.5,1048.5c27.1-7.4,107.5,85.4,114.2,112.7c31.2,126.7-16.8,361.8-14,392.6c2.8,30.8-11,77-40.6,79.7
				c-40.2,3.7-50.4-9-61.7-37.4c-11.3-28.4-33.3-268.4-58-347.4c-9.9-31.6-1.6-85.3,8-123.4C153.4,1117.6,179.3,1055.1,203.5,1048.5
				z"/>
			<path fill="#F0C7AD" d="M287.5,2172.4c0,0-56.5-279.2-87.9-387.6s-3.3-254.3,39.4-258.2c40.3-3.7,60.8-0.9,64.5,40.3
				c3.8,41.2,3.4,155.6,10.1,228.6c6.6,72.9,16.4,362.4,16.4,362.4L287.5,2172.4z"/>
			<path fill="#E3A781" d="M303.8,1569.5c0.4-5.5,0.4-10.8-0.1-15.7c-2.8-30.8,45.2-265.9,14-392.6c-6.7-27.3-87-120.1-114.2-112.7
				c-24.3,6.6-50.1,69.1-52.1,76.8c-9.5,38.1-17.8,91.8-8,123.4c21.3,68.3,40.7,257,52.8,325.2c29.4,5.4,85.6,4.7,89.8,12.6
				c5.7,10.9,6.1,211.4,16.8,298.8c8.2,66,5.7,131,24.3,193.1c-3.4-91.3-9.2-234.6-13.6-282.9C307.1,1724,307.3,1612.7,303.8,1569.5
				z"/>
		</g>
		<g>
			<path fill="#F0C7AD" d="M375.4,1064.9c-27.7-4.9-99.6,97.1-103.9,124.9c-19.7,129,49.3,358.8,49.3,389.8
				c0,31,17.9,75.7,47.6,75.7c40.3,0,49.4-13.5,58.1-42.8c8.7-29.3,26.9-268.5,26.5-351.2c-0.2-43.1-14.3-91.8-18.7-124.6
				C433.1,1128.9,400.1,1069.3,375.4,1064.9z"/>
			<path fill="#F0C7AD" d="M388.1,2193.2c0,0,35.5-282,57-392.9c21.5-110.8-19.6-253.6-62.4-253.6c-40.5,0-60.6,4.5-60.6,45.9
				s10.6,155.3,10.5,228.5c-0.1,73.2,17.1,371.9,17.1,371.9L388.1,2193.2z"/>
			<path fill="#E3A781" d="M428.6,1601.9c9.2-55.4,24.7-264.3,24.3-340.6c-0.2-43.1-14.3-91.8-18.7-124.6
				c-1.1-7.9-34-67.4-58.8-71.8c-27.7-4.9-99.6,97.1-103.9,124.9c-19.7,129,49.3,358.8,49.3,389.8c0,0.4,0,0.8,0,1.2
				c33.1,3,71.7-4.5,91.3,1.8c6.5,7.6,1.5,17.2,5.3,28c11.9,34.4,27.7,86.8,33.7,126.4C451.3,1687.5,442.2,1638,428.6,1601.9z"/>
			<g>
				<g>
					<path fill="#232026" d="M358.3,2148.5c0,0-20.9,0.8-27.2,36.5c-6.3,35.7-22,112.5-22.7,120.3c-0.7,7.8,17.8,48.3,38.4,57.1
						c27,11.6,71.6-47.8,68.9-72c-4.1-35.7-10-93.6-13-123.2C399.6,2137.6,367.3,2145.2,358.3,2148.5z"/>
					<path fill="#F0C7AD" d="M347.7,2142.4c0,0-3.3,31.3-6.6,51.3c-3.3,20-13.4,91.3-13.4,91.3s42.5,11.3,68.8-4.5
						c0,0,0.3-109.4-1.4-134C393.6,2122.9,354.4,2132.6,347.7,2142.4z"/>
				</g>
			</g>
		</g>
		<g>
			<path fill="#2F2A32" d="M422.9,851.8H169.2c0,0-74.8,101.5-74.8,194.5c0,93,77.1,507.5,77.1,507.5s42,15.7,123,12
				c80.3-3.7,168.1-19,168.1-19s35.1-407.4,35.1-500.5C497.7,953.3,422.9,851.8,422.9,851.8z"/>
			<path fill="#1C1A1F" d="M422.9,851.8H169.2c0,0-74.8,101.5-74.8,194.5c0,93,250.7-53.4,375.1-35.1c11.7,1.7,19.4,13.1,27.8,24.1
				C491.9,945.5,422.9,851.8,422.9,851.8z"/>
		</g>
		<path fill="#4F313B" d="M151.2,469.2V152.5c0-48.6,39.8-88.4,88.4-88.4h100.1c48.6,0,88.4,39.8,88.4,88.4v316.8
			C428.1,517.9,151.2,517.9,151.2,469.2z"/>
		<g>
			<g>
				<g>
					<path fill="#F0C7AD" d="M390.5,438.2c0,33.9-62.9,168.1-96.3,168.1c-33.4,0-93.3-134.2-93.3-168.1c0-33.9,42.4-27.9,94.8-27.9
						S390.5,404.3,390.5,438.2z"/>
				</g>
				<g>
					<g>
						<g>
							<path fill="#F0C7AD" d="M296.1,502.3L296.1,502.3c-35.4,0-77.5-26.5-77.5-64.3l29.6-111.7c0-37.5,95.6-37.5,95.6,0L373.5,438
								C373.5,475.8,331.4,502.3,296.1,502.3z"/>
						</g>
					</g>
				</g>
				<g>
					<g>
						<g>
							<path fill="#C98360" d="M251.1,385.1c45,15.1,71.3,13.7,102.8-21.3l-10-37.5c0-37.5-95.6-37.5-95.6,0l-22.8,85.8
								C232.3,395,233.8,379.3,251.1,385.1z"/>
						</g>
					</g>
				</g>
			</g>
		</g>
		<g>
			<path fill="#E1E9ED" d="M169.2,851.8c1.2,6.4-41.5,87.1-39.9,93.5c0,0,123.4,18.7,167.2,18.7c43.8,0,166.2-18.7,166.2-18.7
				c1.6-6.4-41.1-87.1-39.9-93.5c0,0,14.7-138.4,18.6-161.9c4.1-24.9,35.8-95.6,22.5-164.8c0,0,8.5-59.8,4.5-87
				c-30.5-32.9-66.6-41.3-108.9-55.1l5.8,56.8c-8.5,39.8-68.1,86-68.1,86s-60.9-48-70-88.4l5.3-54.4
				c-42.4,13.8-78.5,22.2-108.9,55.1c-3.9,27.3,4.5,87,4.5,87c-13.6,57.7,18.3,139.9,22.5,164.8
				C154.5,713.4,169.2,851.8,169.2,851.8z"/>
		</g>
		<g>
			<g>
				<g>
					<path fill="#F0C7AD" d="M388,290c11.6-3.8,23.3-7.7,33.6-14.3c10.3-6.6,19.2-16.1,22.6-27.8c3.4-11.7,0.5-25.7-9-33.3
						c-9.5-7.7-23.9-5.3-32.5,3.3C398.6,222.1,380.9,292.4,388,290z"/>
					<path fill="#F0C7AD" d="M199.5,290c-11.6-3.8-23.3-7.7-33.6-14.3c-10.3-6.6-19.2-16.1-22.6-27.8c-3.4-11.7-0.5-25.7,9-33.3
						s23.9-5.3,32.5,3.3C189,222.1,206.7,292.4,199.5,290z"/>
				</g>
				<g>
					<path fill="#F0C7AD" d="M305.3,38.5c-2-0.1-21-0.1-23,0C220.9,41.4,163,51.8,172,147.9c0,0,9.6,110.4,15,131.8
						c2.7,10.8,9.9,21.1,16.2,30.1c9.6,13.7,20.7,26.6,33.2,37.7c15.4,13.6,33.8,25.3,54.7,25.3c19.4,0,34-5.6,48.5-16
						c14.4-10.4,26.9-23.5,37.9-37.5c8.3-10.7,16.6-22.3,21.6-35c0.6-1.5,1.2-3,1.5-4.6c5.4-21.4,15-131.8,15-131.8
						C424.6,51.8,366.7,41.4,305.3,38.5z"/>
					<path fill="#E3A781" d="M293.8,368c-44.8-1.9-81.6-44-94.7-85.1c-4.7-14-8.4-41.4-5.7-55.1c4.4-22.2,46.5-74.1,73.2-94.8
						c26.7-20.7,54.8-29.3,85.6-31.6c19.6-1.4,28,56.3,63.3,46.7c0-0.1,0-0.2,0-0.2c9-96.2-48.9-106.5-110.3-109.5
						c-2-0.1-21-0.1-23,0C220.9,41.4,163,51.8,172,147.9c0,0,9.6,110.4,15,131.8c2.7,10.8,9.9,21.1,16.2,30.1
						c9.6,13.7,20.7,26.6,33.2,37.7c15.4,13.6,33.8,25.3,54.7,25.3c19.4,0,34-5.6,48.5-16c6.4-4.6,12.4-9.7,18.1-15.2
						C328.5,363.7,300.3,368.9,293.8,368z"/>
				</g>
			</g>
			<path fill="#4F313B" d="M154.1,212.3c0,0,15.5,11.5,34.5,0.8c11.6-6.5,21-16.1,28.6-27c13.5-19.3,25.6-39.7,41.3-57.2
				c15.7-17.5,35.7-32.4,58.9-36.5c18.3-3.3,38.7,1.3,52.4,13.4c3.1,15.4,6.1,30.9,9.2,46.3c2.4,12.1,10.3,35.6,17.6,45.6
				c7.3,10,19.9,16.5,31.5,12.2c0,0,25.4-151.1-56.2-160.4c0,0-12.6-20.9-50-33.4C272.8,0,165.4,5.8,148.5,99
				C135.8,169,154.1,212.3,154.1,212.3z"/>
		</g>
		<g>
			<g>
				<path fill="#2F2A32" d="M94.5,970.2L265.8,990c8.8,1,17.1-4.5,19.6-13l10.6-36.7l11.6,37.1c2.6,8.4,10.8,13.7,19.5,12.7
					l170.5-19.9c1.6-5.2-59.3-123.4-59.3-185.9c0-12.7,2.8-48.6,15.9-92.2c9.2-30.7,32.1-65.2,34.6-98.1
					c1.9-25.3-10.8-49.6-17.1-70.6c0,0,2.7-60.4-1.3-88c-30.8-33.3-68.6-38.6-110.9-52.4l5.8,56.8c-8.5,39.8-46.9,327.7-73,327.7
					c-26.1,0-56-289.7-65.2-330l5.3-54.4c-42.4,13.8-80.1,19.1-110.9,52.4c-4,27.6-1.3,88-1.3,88c-6.1,21.5-18.8,45.9-17,71.1
					c2.4,33.5,25.3,68.2,34.7,99.1c13.6,44.8,17.5,81.6,17.5,94.6C155.6,858.3,92.9,965,94.5,970.2z"/>
			</g>
			<g>
				<path fill="#1C1A1F" d="M168.7,770.1c-1.4-11.1-6.7-40.9,6-43c37.2-6.1,60.5-4.8,98.1-4.8c-2.7-11.3-5.4-24.2-8-38.2
					c-58.1-8.1-126.9-8-148-66.2c-7.5-23.6,0.3-59.8,4.9-84.9c0-5.1-1.2-9.6-1.2-9.6c-6.1,21.5-18.8,45.9-17,71.1
					c2.4,33.5,25.3,68.2,34.7,99.1c13.6,44.8,17.5,81.6,17.5,94.6c0,70-62.7,176.6-61.1,181.9l30.8,3.6c0.9-27.7,7.3-54.2,15.3-81.6
					C152.4,850.4,174.7,817.9,168.7,770.1z"/>
				<path fill="#1C1A1F" d="M432.9,806.6c7.2,47.6,27.4,101.3,61.4,164l3.4-0.4c1.6-5.2-59.3-123.4-59.3-185.9
					c0-12.7,2.8-48.6,15.9-92.2c9.2-30.7,32.1-65.2,34.6-98.1c1.4-18.2-4.8-35.9-10.7-52.2c3,34.8,11.4,78.8-15.6,110
					c-34,39.6-89.5,28.6-138.9,28.3c-3.3,15.4-6.6,29.6-9.9,41.8c32.3,1.5,77.4-1.6,106.8,13.9C439.7,746.7,425.7,758.9,432.9,806.6
					z"/>
			</g>
		</g>
		<g>
			<path fill="#EDF2F4" d="M305.2,519.7c20.1-13.3,43.4-27.7,66.4-20.4c17.9,5.8,12.3,22.9,20.6,39c-5-37.9,6.4-75.7,0.4-113.6
				c-1.6-10.4-3.4-21-8.7-30c-5.3-9-15.2-16.2-25.6-15.3c0,0,5.6,51.5,2.2,62.5C357,452.9,298.2,524.3,305.2,519.7z"/>
			<path fill="#EDF2F4" d="M287.9,518.3c-20.1-13.3-44.3-27.7-67.2-20.3c-17.9,5.8-12.3,22.9-20.6,39c5-37.9-6.4-75.7-0.4-113.6
				c1.6-10.4,3.4-21,8.7-30c5.3-9,15.2-16.2,25.6-15.3c0,0-5.6,51.5-2.2,62.5C235.2,451.6,294.8,522.9,287.9,518.3z"/>
		</g>
		<g>
			<g>
				<g>
					<path fill="#F0C7AD" d="M168.9,733.6c0,0,135.4-1.3,228.4-0.9c26.4,0.1,163.9,1.6,182.2,25.2c25.6,33-2.2,91.4-94.3,89.9
						c-131.1-2.2-226.6-30.7-350.5-70.7C97.8,765.2,168.9,733.6,168.9,733.6z"/>
				</g>
				<g>
					<path fill="#E3A781" d="M401.8,753.3c10.8-5.2,25.3,0.9,36.1,3.8c23.3-2.5,27-23,40-18.1c54.3,20.5,42.2-1.9,37.5-2.4
						c-46.1-4.8-102.6-3.8-118.1-3.9c-93-0.4-228.4,0.9-228.4,0.9s-71.1,31.6-34.2,43.5c45.8,14.8,87.7,28,129,38.9
						C275,806.8,369.2,769,401.8,753.3z"/>
				</g>
				<g>
					<path fill="#F0C7AD" d="M117.4,665.1l-8.7,79.3c0,0,34.2,43,35.9,43.1c23.5,1.2,38.4,6.8,42.1-3.5
						c3.6-10.3-14.9-74.6-29.9-95.5C141.8,667.5,117.4,665.1,117.4,665.1z"/>
				</g>
				<g>
					<path fill="#F0C7AD" d="M136.7,734.2c0,0-20.7-16.3-35.5-20.1c-10.9-2.8-39.8-2.4-49-3.1c-9.2-0.7-4.8,8.6,2.1,11.4
						c12.2,4.9,49.3,8.3,55.6,13.6C119.2,744,136.7,734.2,136.7,734.2z"/>
					<g>
						<path fill="#F0C7AD" d="M152.5,685.5c0,0-16-30.2-32.8-40.3c-16.8-10.1-74.6-29.5-83.4-29.6c-15-0.2-14,10.8-2.6,16.1
							c16.9,7.9,69.9,27.1,78,33.3c8,6.2,24.3,36.8,24.3,36.8L152.5,685.5z"/>
						<path fill="#F0C7AD" d="M142.9,701.4c0,0-11-22.7-27.9-32.7c-16.8-10.1-77.8,1.9-90.1,3.1c-12.5,1.2-3.8,15,9,15
							c8.9,0,64-4.1,72,2.1c8,6.2,25.3,36.5,25.3,36.5L142.9,701.4z"/>
					</g>
					<path fill="#F0C7AD" d="M136.3,727c0,0-8.8-21.8-22.6-31.4s-60.2-9.6-72.2-10c-10.4-0.4-10.4,13.3,5.8,15.9
						c14.4,2.3,51.1,6.2,57.6,12.1c6.6,6,20.1,24.2,20.1,24.2L136.3,727z"/>
				</g>
			</g>
			<g>
				<g>
					<g>
						<g>
							<g>
								<path fill="#F0C7AD" d="M432.6,682.5c0,0-161.4,29.1-244.8,45.5c-23.6,4.6-142.6,28.5-157.1,52.7c-12,19.9-0.3,50,18.7,55.2
									s91.8,10.8,111.2,5.3c115.5-32.5,160.5-74.4,276-106.9C471.3,724.4,432.6,682.5,432.6,682.5z"/>
							</g>
						</g>
					</g>
				</g>
				<g>
					<g>
						<path fill="#F0C7AD" d="M425.8,684.6c-19.7,28.9-3.8,59.5,7.8,68.1c11.6,8.6,35.1-18.3,54.7-47.2
							c8.2-12.1,15.8-40.3,16.4-45.5L425.8,684.6z"/>
					</g>
					<g>
						<path fill="#F0C7AD" d="M484.3,736.5c-1.7-1.6-9.7-4-12.9-2.2c-8.4,4.6-16.6,14.8-28.3,17c-3.8,0.7-7.2-3.2-9.2-7
							c-1.8-3.3-0.8-8.6,2.7-10.2c10.5-4.9,23.5-13.8,34.7-16.8c5.1-1.4,16,4.4,23.1,8.5c11.3,6.6,21.4,12.2,31.2,21.3
							c6.9,6.4-4.6,10.6-12.2,5C513.2,752,484.9,737.1,484.3,736.5z"/>
						<path fill="#F0C7AD" d="M474,669.3l45.4-32.5c0,0,56.6-2.8,69-3.2c12.4-0.3,8.6,17.2-7.8,17.9c-16.4,0.8-56.8,4.6-56.8,4.6
							s-25,23.1-31.4,28.9C486,690.9,462.5,683.6,474,669.3z"/>
						<path fill="#F0C7AD" d="M486.3,680.4l50.2-4.6c0,0,38.6,9.9,49.7,13.6c11,3.6,3.2,18.3-10.6,14.8c-13.7-3.5-45.6-6.6-45.6-6.6
							s-49.7,8.8-54.5,11.1C470.7,711,486.3,680.4,486.3,680.4z"/>
						<path fill="#F0C7AD" d="M467.9,708.8l43.3-9.4c0,0,38.6,9.9,49.7,13.6c11,3.6,3.2,18.3-10.6,14.8c-13.7-3.5-45.6-6.6-45.6-6.6
							s-41,10.1-45.9,12.4C454,735.9,467.9,708.8,467.9,708.8z"/>
					</g>
				</g>
			</g>
		</g>
	</g>
</g>
</svg>
