<?xml version="1.0" encoding="utf-8"?>
<!-- Generator: Adobe Illustrator 25.2.3, SVG Export Plug-In . SVG Version: 6.00 Build 0)  -->
<svg version="1.1" id="Layer_1" xmlns="http://www.w3.org/2000/svg" xmlns:xlink="http://www.w3.org/1999/xlink" x="0px" y="0px"
	 width="798.1px" height="885.4px" viewBox="0 0 798.1 885.4" enable-background="new 0 0 798.1 885.4" xml:space="preserve">
<g>
	<path fill="#FFFFFF" d="M428.2,124.2c0-6.9-2.9-13.6-7.9-18.4l-89.9-86.6c-4.8-4.6-11.2-7.2-17.9-7.2H192.9
		c-6.8,0-13.3,2.7-18.2,7.5L88,105.8c-4.9,4.8-7.6,11.4-7.6,18.2v122.7c0,6.8,2.7,13.3,7.4,18.1l87.6,88.7
		c4.9,4.9,11.5,7.7,18.5,7.7l123.2-0.9c6.7,0,13.1-2.7,17.9-7.4l86.2-85.1c4.9-4.9,7.7-11.5,7.7-18.4L428.2,124.2z M253.5,260.4
		c-42.3,0-76.6-34.3-76.6-76.6s34.3-76.6,76.6-76.6s76.6,34.3,76.6,76.6S295.8,260.4,253.5,260.4z"/>
</g>
<g>
	<path fill="#FFFFFF" d="M780.8,414.1l-65.5-111.7c-4.1-7-11.7-11.3-19.8-11.3H560.1c-8.1,0-15.5,4.2-19.7,11.2l-67,111.8
		c-4.3,7.2-4.4,16.3,0,23.6l72.2,121.1c4.2,7,11.8,11.3,20,11.2l130.2-1.7c8.3-0.1,15.8-4.7,19.8-11.9l65.5-119.5
		C785,429.7,784.9,421.1,780.8,414.1z M628.2,477c-26,0-47.1-21.1-47.1-47.1c0-26,21.1-47.1,47.1-47.1c26,0,47.1,21.1,47.1,47.1
		C675.3,455.9,654.2,477,628.2,477z"/>
</g>
<g>
	<path fill="#FFFFFF" d="M492.9,634.8l-106-183c-5.5-9.4-15.5-15.2-26.4-15.2H150.1c-10.9,0-20.9,5.8-26.4,15.2l-107,184
		c-5.6,9.6-5.5,21.4,0.2,31l109.9,184.4c5.5,9.2,15.5,14.9,26.2,14.9h207.5c10.9,0,21.1-5.9,26.5-15.4L493,665.2
		C498.4,655.8,498.3,644.2,492.9,634.8z M255.3,751.6c-56.9,0-103.1-46.2-103.1-103.1s46.2-103.1,103.1-103.1
		c56.9,0,103.1,46.2,103.1,103.1S312.2,751.6,255.3,751.6z"/>
</g>
</svg>
